<?xml version="1.0" standalone="no"?>
<!DOCTYPE svg PUBLIC "-//W3C//DTD SVG 20010904//EN"
 "http://www.w3.org/TR/2001/REC-SVG-20010904/DTD/svg10.dtd">
<svg version="1.0" xmlns="http://www.w3.org/2000/svg"
 width="204.000000pt" height="192.000000pt" viewBox="0 0 204.000000 192.000000"
 preserveAspectRatio="xMidYMid meet">

<g transform="translate(0.000000,192.000000) scale(0.100000,-0.100000)"
fill="#000000" stroke="none">
<path d="M955 1894 c-38 -14 -92 -31 -120 -39 -48 -14 -62 -25 -112 -88 -16
-21 -38 -32 -83 -43 -33 -8 -82 -25 -108 -39 -26 -14 -53 -25 -60 -25 -7 0
-43 -31 -80 -68 -48 -49 -86 -103 -132 -186 -36 -65 -70 -127 -77 -139 -6 -11
-9 -33 -6 -48 3 -16 -4 -51 -16 -83 -12 -31 -21 -80 -21 -108 0 -34 -6 -58
-18 -72 -28 -33 6 -5 88 74 65 62 73 74 77 115 3 25 0 58 -7 75 -11 28 -16 30
-46 24 -19 -3 -34 -3 -34 1 0 11 40 76 61 100 10 11 36 56 58 100 82 163 171
226 386 270 226 47 412 52 452 12 22 -22 8 -54 -36 -81 -36 -23 -91 -86 -91
-104 0 -5 -13 -15 -29 -22 -20 -8 -38 -29 -57 -66 -23 -46 -26 -61 -21 -112
10 -97 52 -175 113 -211 25 -15 38 -36 63 -100 17 -44 31 -91 31 -105 0 -36
46 -88 68 -76 9 5 25 11 35 14 9 3 17 14 17 24 0 11 6 25 14 31 15 12 217 24
242 14 14 -5 64 -85 64 -102 0 -21 -20 -11 -26 13 -4 16 -11 23 -20 19 -8 -3
-21 2 -28 12 -11 15 -22 17 -79 11 -65 -7 -67 -8 -67 -36 0 -18 -8 -34 -21
-44 -21 -14 -21 -16 -5 -62 22 -66 20 -81 -14 -121 -35 -39 -32 -53 11 -53 38
0 69 -16 69 -35 0 -18 0 -18 42 -1 35 15 47 33 69 104 7 24 18 50 24 59 17 24
45 9 45 -23 0 -32 -67 -134 -87 -134 -7 0 -16 -7 -19 -15 -3 -8 -23 -19 -43
-25 -20 -5 -63 -25 -95 -45 -64 -38 -84 -43 -92 -20 -4 8 -12 15 -20 15 -19 0
-18 -53 2 -91 8 -17 14 -47 12 -67 -3 -32 -7 -38 -38 -48 -19 -6 -36 -18 -39
-25 -6 -19 -22 -29 -49 -29 -14 0 -26 -8 -31 -24 -7 -17 -20 -25 -50 -30 -31
-5 -41 -11 -41 -25 0 -27 -23 -42 -72 -48 -24 -3 -55 -12 -70 -20 -25 -12 -30
-11 -48 7 -26 26 -19 38 53 78 86 49 130 111 60 84 -81 -31 -253 -20 -325 22
-43 24 -52 45 -67 171 -5 44 -12 90 -16 102 -5 16 -2 23 14 28 14 4 21 15 21
33 0 39 -51 162 -71 173 -10 5 -21 25 -25 44 -5 30 -9 34 -28 29 -18 -4 -26 2
-42 35 -32 67 -48 47 -19 -23 24 -57 9 -74 -61 -72 -42 1 -60 6 -70 20 -9 13
-21 17 -40 13 -29 -5 -109 26 -117 46 -3 6 -6 -5 -6 -25 -1 -25 6 -45 19 -58
26 -26 27 -54 1 -47 -29 7 -31 -27 -9 -191 19 -140 22 -193 18 -324 -2 -74 20
-120 77 -158 l44 -30 738 0 739 0 -5 68 c-2 37 -11 92 -19 122 -15 54 -15 58
10 128 14 40 41 99 59 130 19 31 53 93 75 138 22 44 56 100 74 125 18 24 44
58 56 76 64 91 85 374 38 526 -14 44 -41 103 -60 133 -20 29 -36 57 -36 61 0
5 -19 32 -43 61 -24 29 -65 88 -91 132 -54 91 -90 125 -149 140 -23 6 -69 20
-102 31 -104 34 -205 49 -335 48 -106 0 -135 -4 -195 -25z m169 -384 c15 -14
-5 -32 -30 -27 -19 3 -26 -1 -30 -19 -8 -29 -34 -32 -34 -3 0 36 32 68 60 62
14 -3 29 -9 34 -13z m-104 -34 c0 -3 -4 -8 -10 -11 -5 -3 -10 -1 -10 4 0 6 5
11 10 11 6 0 10 -2 10 -4z m-10 -117 c0 -11 -4 -19 -9 -19 -16 0 -33 30 -27
46 5 13 9 14 21 4 8 -7 15 -21 15 -31z m-773 -235 c5 -15 -28 -27 -40 -15 -5
5 -6 14 -2 21 8 13 37 9 42 -6z m1178 -334 c3 -5 14 -10 24 -10 27 0 38 -19
45 -75 6 -43 4 -55 -16 -85 -29 -42 -71 -49 -76 -13 -3 17 3 26 22 32 32 13
25 42 -21 94 -34 38 -38 48 -26 60 10 10 41 8 48 -3z m-1055 -95 c4 -17 16
-49 28 -72 12 -23 22 -49 22 -57 0 -19 -36 -39 -59 -33 -10 2 -26 -2 -36 -9
-20 -15 -57 -10 -92 13 -14 9 -33 12 -55 8 -25 -5 -38 -2 -47 9 -16 19 -6 36
19 36 13 0 25 12 34 34 12 29 23 36 68 50 31 9 58 24 66 36 18 29 45 21 52
-15z m22 -237 c29 -11 42 -40 53 -119 3 -25 15 -62 26 -83 11 -21 17 -45 15
-54 -9 -28 -111 -82 -177 -95 l-60 -11 -45 49 c-49 54 -54 77 -24 98 18 13 19
16 5 27 -23 19 -18 39 13 46 54 12 92 26 98 36 8 13 -14 28 -44 28 -13 0 -33
11 -46 25 -13 14 -28 25 -35 25 -14 0 -14 6 0 31 10 19 17 20 102 14 51 -4
104 -11 119 -17z m1122 -110 c28 -130 26 -161 -8 -182 -23 -15 -124 -41 -201
-52 -27 -4 -59 -13 -70 -20 -11 -8 -30 -14 -42 -14 -31 0 -30 33 2 58 13 11
30 31 36 46 14 30 25 32 50 10 16 -15 21 -14 56 6 25 13 48 38 63 68 50 94
103 131 114 80z m-1364 -219 c0 -20 -15 -26 -25 -9 -9 15 3 43 15 35 5 -3 10
-15 10 -26z"/>
<path d="M460 1335 c17 -20 4 -35 -30 -35 -16 0 -45 -10 -64 -22 -30 -19 -35
-27 -30 -48 3 -14 8 -41 11 -60 3 -19 14 -45 25 -57 11 -12 17 -26 14 -32 -9
-15 14 -88 33 -105 34 -31 67 -30 100 3 18 17 39 31 47 31 8 0 12 5 9 10 -3 6
-24 10 -46 10 -76 0 -112 41 -56 64 35 15 119 8 139 -12 7 -7 24 -12 40 -12
27 0 98 28 98 39 0 3 -19 7 -43 7 -25 1 -74 16 -120 38 -43 20 -91 36 -107 36
-65 0 -34 51 46 77 44 13 61 15 85 6 16 -6 29 -8 29 -3 0 14 -66 50 -92 50
-14 0 -31 7 -38 15 -7 8 -24 15 -37 15 -21 0 -23 -2 -13 -15z"/>
<path d="M79 903 c-13 -16 -12 -17 4 -4 16 13 21 21 13 21 -2 0 -10 -8 -17
-17z"/>
<path d="M220 889 c0 -5 5 -7 10 -4 6 3 10 8 10 11 0 2 -4 4 -10 4 -5 0 -10
-5 -10 -11z"/>
<path d="M1260 644 c0 -8 5 -12 10 -9 6 3 10 10 10 16 0 5 -4 9 -10 9 -5 0
-10 -7 -10 -16z"/>
</g>
</svg>
